#!OML:ASF H:\Punching\Project 1\Capture day 1\Session 1\female.ASF
:FULLY-SPECIFIED
:DEGREES
3179
root -0.606707 14.805 -3.18464 15.3002 -27.9635 -4.71747
lowerback -4.69915 0.91296 4.19424
upperback -7.06486 1.09595 0.0702062
thorax -4.61619 0.316788 -2.26424
lowerneck -5.96129 11.9413 18.5543
upperneck 32.1909 19.5649 -16.2728
head 16.1998 8.99757 -6.75601
rclavicle 6.73383e-015 -3.57812e-015
rhumerus 12.5343 34.785 -72.017
rradius 129.241
rwrist -13.2443
rhand -27.9604 7.12261
rfingers 7.12502
rthumb -1.34767 -22.8529
lclavicle 6.73383e-015 -3.57812e-015
lhumerus 1.52965 -15.3759 61.872
lradius 140.892
lwrist -1.55186
lhand -29.4195 7.57704
lfingers 7.12502
lthumb -2.7568 37.539
rfemur -5.58673 5.09692 22.0379
rtibia 28.3494
rfoot -32.7815 -28.7058
rtoes -3.00456
lfemur -45.334 3.14807 -3.03081
ltibia 42.2653
lfoot -8.01696 22.3297
ltoes 11.774
3180
root -0.613621 14.806 -3.1997 15.3395 -27.6504 -4.74315
lowerback -4.68287 0.873564 4.19313
upperback -7.04234 1.04463 0.0709776
thorax -4.60513 0.292194 -2.26337
lowerneck -6.03962 11.9188 18.5071
upperneck 32.1475 19.5201 -16.2721
head 16.1766 8.96942 -6.75063
rclavicle -2.3792e-014 -1.35174e-014
rhumerus 12.5141 34.7058 -71.9794
rradius 129.288
rwrist -13.2639
rhand -28.0012 7.1147
rfingers 7.12502
rthumb -1.38708 -22.8605
lclavicle -2.3792e-014 -1.35174e-014
lhumerus 1.50617 -15.2534 61.8422
lradius 140.847
lwrist -1.46335
lhand -29.3782 7.53385
lfingers 7.12502
lthumb -2.71696 37.4963
rfemur -5.62313 5.04482 22.2196
rtibia 28.359
rfoot -32.7945 -28.9172
rtoes -2.9761
lfemur -45.5859 3.20677 -3.0095
ltibia 42.3022
lfoot -7.74262 22.0654
ltoes 11.9083
3181
root -0.620377 14.8079 -3.21299 15.3858 -27.3219 -4.75364
lowerback -4.68849 0.831814 4.18968
upperback -7.02269 0.988807 0.0639265
thorax -4.58499 0.265356 -2.26907
lowerneck -6.11506 11.8941 18.4583
upperneck 32.1004 19.4715 -16.2704
head 16.1495 8.93982 -6.74524
rclavicle -3.12465e-014 -5.1684e-015
rhumerus 12.4682 34.637 -71.9593
rradius 129.32
rwrist -13.2483
rhand -28.061 7.13642
rfingers 7.12502
rthumb -1.44478 -22.8384
lclavicle -3.12465e-014 -5.1684e-015
lhumerus 1.46474 -15.1287 61.8328
lradius 140.781
lwrist -1.3887
lhand -29.3202 7.40629
lfingers 7.12502
lthumb -2.66093 37.3694
rfemur -5.65905 4.96416 22.3836
rtibia 28.3503
rfoot -32.8063 -29.1162
rtoes -2.93391
lfemur -45.87 3.24844 -3.00127
ltibia 42.3556
lfoot -7.46609 21.8076
ltoes 12.0401
3182
root -0.627022 14.8105 -3.22496 15.439 -26.9847 -4.76115
lowerback -4.70418 0.791658 4.18771
upperback -7.00514 0.934499 0.0537611
thorax -4.56128 0.239138 -2.27871
lowerneck -6.19011 11.8667 18.4056
upperneck 32.0526 19.4196 -16.2684
head 16.1205 8.90845 -6.73983
rclavicle 5.91633e-014 3.97569e-015
rhumerus 12.3986 34.5774 -71.9553
rradius 129.335
rwrist -13.205
rhand -28.1438 7.19707
rfingers 7.12502
rthumb -1.52482 -22.7772
lclavicle 5.91633e-014 3.97569e-015
lhumerus 1.40431 -15.0138 61.8423
lradius 140.707
lwrist -1.33874
lhand -29.2502 7.24589
lfingers 7.12502
lthumb -2.59332 37.2099
rfemur -5.69354 4.87265 22.5431
rtibia 28.3265
rfoot -32.8147 -29.3132
rtoes -2.88016
lfemur -46.1782 3.28526 -2.99372
ltibia 42.4261
lfoot -7.18438 21.5444
ltoes 12.1756
